<svg xmlns="http://www.w3.org/2000/svg" viewBox="0 0 512 512">
  <rect width="512" height="512" rx="80" fill="#0a1628"/>
  <rect x="140" y="100" width="232" height="300" rx="16" fill="none" stroke="#c9a84c" stroke-width="20"/>
  <rect x="170" y="140" width="172" height="20" rx="6" fill="#c9a84c"/>
  <rect x="170" y="180" width="120" height="14" rx="6" fill="rgba(255,255,255,0.4)"/>
  <rect x="170" y="210" width="140" height="14" rx="6" fill="rgba(255,255,255,0.4)"/>
  <rect x="170" y="240" width="100" height="14" rx="6" fill="rgba(255,255,255,0.4)"/>
  <!-- QR symbol -->
  <rect x="170" y="280" width="50" height="50" rx="4" fill="none" stroke="#c9a84c" stroke-width="8"/>
  <rect x="182" y="292" width="26" height="26" rx="2" fill="#c9a84c"/>
  <rect x="232" y="280" width="50" height="50" rx="4" fill="none" stroke="#c9a84c" stroke-width="8"/>
  <rect x="244" y="292" width="26" height="26" rx="2" fill="#c9a84c"/>
  <rect x="170" y="342" width="50" height="50" rx="4" fill="none" stroke="#c9a84c" stroke-width="8"/>
  <rect x="182" y="354" width="26" height="26" rx="2" fill="#c9a84c"/>
  <rect x="232" y="342" width="14" height="14" rx="2" fill="#c9a84c"/>
  <rect x="252" y="342" width="14" height="14" rx="2" fill="#c9a84c"/>
  <rect x="268" y="358" width="14" height="14" rx="2" fill="#c9a84c"/>
  <rect x="232" y="374" width="14" height="14" rx="2" fill="#c9a84c"/>
  <rect x="252" y="374" width="30" height="14" rx="2" fill="#c9a84c"/>
</svg>
